<svg xmlns="http://www.w3.org/2000/svg" width="28" height="28" viewBox="0 0 28 28">
  <defs>
    <style>
      .cls-1 {
        fill: none;
      }

      .cls-2 {
        fill: #da4648;
      }
    </style>
  </defs>
  <g id="グループ_39" data-name="グループ 39" transform="translate(-808 -519)">
    <path id="パス_15" data-name="パス 15" class="cls-1" d="M0,0H28V28H0Z" transform="translate(808 519)"/>
    <g id="icon_gulp" transform="translate(807.322 518.995)">
      <path id="パス_29" data-name="パス 29" class="cls-2" d="M14.949,20.86a13.619,13.619,0,0,1-2.96-.313,5.929,5.929,0,0,1-.847-.248l.684,1.106.268,3.457c0,.388,1.3.7,2.9.7s2.9-.314,2.9-.7l.212-3.494.647-1.072a5.867,5.867,0,0,1-.854.251,13.619,13.619,0,0,1-2.96.313ZM18.785,9.612A30.463,30.463,0,0,1,15,9.82a30.463,30.463,0,0,1-3.787-.208,7.445,7.445,0,0,1-1.178-.233,1.763,1.763,0,0,1-.29-.114l.627,5.465q.044-.141.1-.282a5.194,5.194,0,0,1,.252-.563,4.929,4.929,0,0,1,.316-.52,4.053,4.053,0,0,1,.364-.451,2.844,2.844,0,0,1,.4-.354,1.908,1.908,0,0,1,.41-.232,1.09,1.09,0,0,1,.41-.08.922.922,0,0,1,.453.121,1.263,1.263,0,0,1,.409.392.3.3,0,0,1,.056.123.633.633,0,0,1,.012.117.3.3,0,0,1-.066.2.2.2,0,0,1-.156.075.2.2,0,0,1-.153-.08,1.547,1.547,0,0,1-.158-.235.577.577,0,0,0-.181-.2.4.4,0,0,0-.215-.062.685.685,0,0,0-.385.141,2.181,2.181,0,0,0-.4.373,4.086,4.086,0,0,0-.385.53,5.422,5.422,0,0,0-.325.611,4.206,4.206,0,0,0-.225.616,2.082,2.082,0,0,0-.084.546,1.237,1.237,0,0,0,.012.166.534.534,0,0,0,.044.155.31.31,0,0,0,.084.114.215.215,0,0,0,.14.045.492.492,0,0,0,.216-.061,1.632,1.632,0,0,0,.252-.159,3.1,3.1,0,0,0,.261-.222q.131-.123.244-.251t.2-.244a1.428,1.428,0,0,0,.131-.2l.239-.677a.319.319,0,0,1,.114-.159.262.262,0,0,1,.146-.046.236.236,0,0,1,.072.011.172.172,0,0,1,.109.1.228.228,0,0,1,.017.091,1.248,1.248,0,0,1-.026.26,1.972,1.972,0,0,1-.066.239q-.04.115-.088.232t-.1.244a.535.535,0,0,0-.037.091l-.066.192q-.039.112-.084.258l-.093.291q-.048.148-.091.291l-.078.258-.058.193c-.015.052-.025.08-.029.092a.581.581,0,0,1-.041.1.668.668,0,0,1-.066.107.4.4,0,0,1-.084.08.162.162,0,0,1-.1.033.137.137,0,0,1-.119-.052.346.346,0,0,1-.037-.19v-.041a.387.387,0,0,1,0-.043.979.979,0,0,1,.049-.173q.036-.127.084-.287t.108-.331l.1-.307q-.136.144-.3.287a3.155,3.155,0,0,1-.327.256,1.964,1.964,0,0,1-.337.186.834.834,0,0,1-.327.072.61.61,0,0,1-.31-.075.422.422,0,0,1-.045-.029l.349,3.466a8.2,8.2,0,0,0,4.06.745,8.191,8.191,0,0,0,4.06-.746l.5-4.121-.12.105a5.2,5.2,0,0,1-.407.327,1.862,1.862,0,0,1-.374.212,1.018,1.018,0,0,1-.39.075.493.493,0,0,1-.3-.08.263.263,0,0,1-.107-.221v-.022a.139.139,0,0,1,0-.025.507.507,0,0,1,.08-.2,2.283,2.283,0,0,1,.168-.233q.1-.121.208-.245t.2-.235a2.276,2.276,0,0,0,.156-.2.3.3,0,0,0,.061-.15.066.066,0,0,0-.026-.055.141.141,0,0,0-.084-.02.5.5,0,0,0-.212.05,1.06,1.06,0,0,0-.216.135,1.909,1.909,0,0,0-.208.194,2.9,2.9,0,0,0-.19.228q-.088.118-.162.239t-.125.221l-.044.089q-.029.057-.061.13t-.071.148l-.068.144-.056.121q-.024.053-.035.073t-.042.1l-.068.169-.084.2-.08.2L16.8,17.4c-.019.048-.031.08-.036.1a1.02,1.02,0,0,1-.061.141.579.579,0,0,1-.08.117.361.361,0,0,1-.1.08.274.274,0,0,1-.13.03.263.263,0,0,1-.153-.041.182.182,0,0,1-.061-.159.477.477,0,0,1,.015-.118,1.011,1.011,0,0,1,.039-.119c.015-.04.031-.08.048-.115s.031-.073.045-.108q.139-.288.283-.577t.276-.573c.019-.04.035-.08.053-.117l-.016.015a3.373,3.373,0,0,1-.337.269,1.791,1.791,0,0,1-.329.186.812.812,0,0,1-.317.069.43.43,0,0,1-.176-.032.291.291,0,0,1-.113-.086.336.336,0,0,1-.061-.13.4.4,0,0,0-.009-.053l-.091.065a1.873,1.873,0,0,1-.314.171.725.725,0,0,1-.278.065.27.27,0,0,1-.2-.08.369.369,0,0,1-.077-.265,1.379,1.379,0,0,1,.041-.308,1.578,1.578,0,0,1-.168.228,1.432,1.432,0,0,1-.229.21,1.162,1.162,0,0,1-.288.154.992.992,0,0,1-.347.059.653.653,0,0,1-.163-.02.335.335,0,0,1-.232-.2.515.515,0,0,1-.036-.206.557.557,0,0,1,.01-.088,1.793,1.793,0,0,1,.066-.268q.056-.183.168-.478a7,7,0,0,1,.327-.706.392.392,0,0,1,.125-.159.269.269,0,0,1,.153-.048.3.3,0,0,1,.075.01.247.247,0,0,1,.072.032.175.175,0,0,1,.054.055.143.143,0,0,1,.02.08.19.19,0,0,1-.008.055.637.637,0,0,1-.056.128q-.042.08-.1.182t-.119.221q-.063.118-.117.245a2.356,2.356,0,0,0-.093.258,1.061,1.061,0,0,0-.044.255.182.182,0,0,0,.026.095.091.091,0,0,0,.084.043.557.557,0,0,0,.319-.1,1.384,1.384,0,0,0,.28-.258,2.469,2.469,0,0,0,.232-.331q.1-.177.173-.324a1.59,1.59,0,0,0,.084-.21,2.024,2.024,0,0,1,.084-.207.631.631,0,0,1,.1-.159.182.182,0,0,1,.141-.064.179.179,0,0,1,.146.066.243.243,0,0,1,.054.159.431.431,0,0,1-.035.143q-.035.091-.084.207t-.114.249q-.061.133-.114.269a2.563,2.563,0,0,0-.084.268.953.953,0,0,0-.035.244.09.09,0,0,0,.029.078.1.1,0,0,0,.084.025.515.515,0,0,0,.2-.052,1.367,1.367,0,0,0,.248-.146l.065-.049a1.922,1.922,0,0,1,.084-.26q.09-.225.183-.447l.168-.406.778-1.858a.313.313,0,0,1,.125-.159.31.31,0,0,1,.158-.046.237.237,0,0,1,.145.049.184.184,0,0,1,.066.159.309.309,0,0,1-.022.109,1.288,1.288,0,0,1-.056.124q-.064.135-.153.331t-.19.426q-.1.23-.208.478l-.208.485-.19.448-.153.367a1.559,1.559,0,0,0-.056.155.54.54,0,0,0-.027.159.135.135,0,0,0,.015.069.063.063,0,0,0,.059.026.351.351,0,0,0,.135-.036,1.4,1.4,0,0,0,.175-.095q.094-.059.2-.135t.2-.159q.1-.08.192-.164l.163-.151a.116.116,0,0,1,.04-.025c.029-.08.056-.159.078-.239l.056-.147a1.962,1.962,0,0,1,.084-.187.8.8,0,0,1,.1-.159.165.165,0,0,1,.125-.061.21.21,0,0,1,.149.045.174.174,0,0,1,.046.131.453.453,0,0,1-.005.055.483.483,0,0,1-.013.08c-.005.028-.011.054-.017.08a.349.349,0,0,1-.017.055q.1-.1.205-.194a2.1,2.1,0,0,1,.229-.174,1.346,1.346,0,0,1,.242-.127.666.666,0,0,1,.247-.049.629.629,0,0,1,.168.023.5.5,0,0,1,.149.068.361.361,0,0,1,.107.112.3.3,0,0,1,.041.159.594.594,0,0,1-.063.252,1.8,1.8,0,0,1-.158.269q-.1.135-.205.264t-.207.233l-.162.178a.268.268,0,0,0-.068.1.077.077,0,0,0,.024.057.112.112,0,0,0,.077.022A.306.306,0,0,0,18.575,16a2.192,2.192,0,0,0,.237-.159q.153-.114.388-.305c.108-.088.233-.192.375-.311l.68-5.958a1.758,1.758,0,0,1-.29.114,7.445,7.445,0,0,1-1.181.226ZM15,8.2c-2.939,0-5.32.311-5.32.695s2.375.693,5.32.693,5.32-.311,5.32-.695S17.933,8.2,15,8.2Zm2.124.9c0,.09-.283.159-.632.159s-.632-.073-.632-.159.283-.159.632-.159.629.068.629.158Z" transform="translate(0)"/>
      <path id="パス_30" data-name="パス 30" class="cls-2" d="M17.17,9.234a.034.034,0,0,0-.006.018c0,.073.271.132.6.132s.6-.059.6-.132l.79-3.2L22.3,2.735h0c.066-.075-.068-.308-.292-.508s-.466-.267-.541-.191h0L18.122,5.559Z" transform="translate(-2.004)"/>
    </g>
  </g>
</svg>
