<?xml version="1.0" encoding="utf-8"?>
<!-- Generator: Adobe Illustrator 23.0.1, SVG Export Plug-In . SVG Version: 6.00 Build 0)  -->
<svg version="1.1" id="レイヤー_1" xmlns="http://www.w3.org/2000/svg" xmlns:xlink="http://www.w3.org/1999/xlink" x="0px"
	 y="0px" viewBox="0 0 100 100" style="enable-background:new 0 0 100 100;" xml:space="preserve">
<style type="text/css">
	.st0{fill:#F7DF1E;}
</style>
<g>
	<path class="st0" d="M19,19h62v62H19V19z"/>
	<path d="M35.3,70.8l4.7-2.9c0.9,1.6,1.7,3,3.7,3c1.9,0,3.1-0.7,3.1-3.7V47.5h5.8v19.9c0,6-3.5,8.8-8.7,8.8
		C39.4,76.1,36.7,73.7,35.3,70.8 M55.9,70.2l4.7-2.7c1.2,2,2.9,3.5,5.7,3.5c2.4,0,4-1.2,4-2.9c0-2-1.6-2.7-4.2-3.9l-1.5-0.6
		c-4.2-1.8-7-4-7-8.8c0-4.4,3.3-7.7,8.5-7.7c3.7,0,6.4,1.3,8.3,4.7l-4.5,2.9c-1-1.8-2.1-2.5-3.7-2.5c-1.7,0-2.8,1.1-2.8,2.5
		c0,1.7,1.1,2.5,3.6,3.5l1.5,0.6c5,2.1,7.7,4.3,7.7,9.2c0,5.2-4.1,8.1-9.7,8.1C61.1,76.1,57.6,73.6,55.9,70.2"/>
</g>
</svg>
