<svg xmlns="http://www.w3.org/2000/svg" width="28" height="28" viewBox="0 0 28 28">
  <defs>
    <style>
      .cls-1 {
        fill: none;
      }

      .cls-2 {
        fill: #cd6799;
      }
    </style>
  </defs>
  <g id="グループ_39" data-name="グループ 39" transform="translate(-808 -519)">
    <path id="パス_15" data-name="パス 15" class="cls-1" d="M0,0H28V28H0Z" transform="translate(808 519)"/>
    <path id="icon_sass" class="cls-2" d="M19.22,14.122a4.142,4.142,0,0,0-1.812.42A3.817,3.817,0,0,1,17,13.6a2.521,2.521,0,0,1-.036-.786,7.008,7.008,0,0,1,.237-.851c0-.036-.044-.209-.446-.214s-.748.076-.786.183a4.408,4.408,0,0,0-.168.6,14.06,14.06,0,0,1-1.223,2.353,2.276,2.276,0,0,1-.314-1.476,7.008,7.008,0,0,1,.237-.851c0-.036-.044-.209-.446-.214s-.748.076-.786.183-.084.357-.168.6-1.059,2.418-1.315,2.98c-.131.286-.245.519-.325.676h0a.166.166,0,0,1-.014.029c-.071.135-.109.209-.109.209v0c-.055.1-.114.19-.143.19a1.222,1.222,0,0,1,.007-.621c.143-.756.493-1.932.489-1.973,0-.022.066-.226-.226-.332a.363.363,0,0,0-.413.071c-.026,0-.044.062-.044.062s.318-1.322-.606-1.322a2.753,2.753,0,0,0-1.768,1.2c-.249.135-.778.424-1.344.734-.214.121-.439.241-.646.357-.014-.014-.029-.033-.044-.047-1.125-1.2-3.193-2.044-3.1-3.647.033-.584.234-2.118,3.97-3.982,3.075-1.516,5.523-1.1,5.947-.164.606,1.33-1.311,3.8-4.489,4.157A2.393,2.393,0,0,1,6.919,11.2c-.168-.183-.194-.194-.256-.157-.1.055-.036.219,0,.314a1.876,1.876,0,0,0,1.147.9,6.107,6.107,0,0,0,3.726-.369c1.928-.745,3.428-2.816,2.988-4.551C14.082,5.575,11.161,4.994,8.4,5.978a13.927,13.927,0,0,0-4.71,2.7C2.161,10.1,1.921,11.343,2.019,11.862,2.376,13.7,4.913,14.9,5.927,15.79l-.139.076c-.508.252-2.443,1.264-2.928,2.334-.548,1.214.088,2.082.508,2.2a3.124,3.124,0,0,0,3.364-1.363,3.375,3.375,0,0,0,.3-3.109.076.076,0,0,0-.014-.022l.4-.234c.259-.154.515-.3.734-.413a4.814,4.814,0,0,0-.259,1.33,2.775,2.775,0,0,0,.6,1.928.658.658,0,0,0,.482.157c.429,0,.625-.357.84-.781.263-.519.5-1.121.5-1.121s-.3,1.629.508,1.629c.292,0,.588-.38.72-.571v0s.007-.011.022-.036l.047-.076v-.007c.117-.2.38-.669.771-1.439.5-.993.99-2.235.99-2.235a6.348,6.348,0,0,0,.194.807,7.6,7.6,0,0,0,.416.935c-.117.164-.19.256-.19.256l0,0c-.095.124-.2.259-.311.391a11.642,11.642,0,0,0-.938,1.176.319.319,0,0,0,.088.429.8.8,0,0,0,.489.081,2.248,2.248,0,0,0,.734-.168,2.464,2.464,0,0,0,.632-.332,1.414,1.414,0,0,0,.606-1.246,2.515,2.515,0,0,0-.23-.881c.036-.051.071-.1.106-.154a16.732,16.732,0,0,0,1.1-1.892,6.348,6.348,0,0,0,.194.807,5.407,5.407,0,0,0,.357.8,3.472,3.472,0,0,0-1.069,1.373c-.23.665-.051.964.286,1.033a1.018,1.018,0,0,0,.534-.109A2.428,2.428,0,0,0,17.04,17a1.518,1.518,0,0,0,.745-1.235,2.334,2.334,0,0,0-.168-.731,3.825,3.825,0,0,1,1.94-.223c1.738.2,2.082,1.289,2.016,1.746a1.156,1.156,0,0,1-.551.781c-.121.076-.161.1-.15.157.014.081.071.076.175.062A1.357,1.357,0,0,0,22,16.356c.055-1.071-.968-2.246-2.776-2.235ZM5.807,18.642c-.577.629-1.381.866-1.728.665-.373-.214-.226-1.143.482-1.808a9.2,9.2,0,0,1,1.357-1.012l.357-.214.04-.022h0l.088-.055a2.5,2.5,0,0,1-.6,2.447Zm4.2-2.857c-.2.489-.621,1.743-.876,1.673-.219-.059-.357-1.008-.044-1.947a4.423,4.423,0,0,1,.683-1.253c.314-.351.661-.468.745-.325a6.472,6.472,0,0,1-.508,1.852Zm3.466,1.658c-.084.044-.164.071-.2.051s.036-.071.036-.071.435-.468.606-.679c.1-.124.214-.27.34-.435v.047c0,.559-.541.935-.781,1.088Zm2.674-.61c-.062-.044-.051-.19.157-.646a2.434,2.434,0,0,1,.6-.767,1.034,1.034,0,0,1,.059.336,1.1,1.1,0,0,1-.811,1.078Z" transform="translate(810 520.499)"/>
  </g>
</svg>
