<?xml version="1.0" encoding="utf-8"?>
<!-- Generator: Adobe Illustrator 23.0.1, SVG Export Plug-In . SVG Version: 6.00 Build 0)  -->
<svg version="1.1" id="レイヤー_1" xmlns="http://www.w3.org/2000/svg" xmlns:xlink="http://www.w3.org/1999/xlink" x="0px"
	 y="0px" viewBox="0 0 100 100" style="enable-background:new 0 0 100 100;" xml:space="preserve">
<style type="text/css">
	.st0{fill:url(#SVGID_1_);}
	.st1{fill:#FF7F18;}
</style>
<g>
	
		<radialGradient id="SVGID_1_" cx="-833.7636" cy="4890.0903" r="1.884797e-02" gradientTransform="matrix(2291.6716 0 0 -2218.7549 1910752.625 10849947)" gradientUnits="userSpaceOnUse">
		<stop  offset="0" style="stop-color:#423325;stop-opacity:0.98"/>
		<stop  offset="1" style="stop-color:#1C0A00"/>
	</radialGradient>
	<path class="st0" d="M21.6,22.4h56.8v55.3H21.6V22.4z"/>
	<path class="st1" d="M21.6,22.4h56.8v55.3H21.6V22.4z M19,80.2h62V19.8H19V80.2z M59.6,41.3c0-0.2,0.1-0.3,0.3-0.3H64
		c0.2,0,0.3,0.1,0.3,0.3v20.4c0,0.2-0.1,0.3-0.3,0.3h-4c-0.3,0-0.3-0.1-0.3-0.3L59.6,41.3L59.6,41.3L59.6,41.3z M59.3,35.5
		c0-1.7,1.2-2.6,2.6-2.6c1.6,0,2.6,1.1,2.6,2.6c0,1.7-1.1,2.6-2.7,2.6C60.4,38.1,59.3,37.2,59.3,35.5z M47.7,49.8
		c-0.7-2.9-2.4-9.1-3.1-12.1h-0.1c-0.5,3-1.9,8.1-3,12.1H47.7z M40.5,54l-2,7.8C38.4,62,38.3,62,38.1,62h-3.8C34,62,34,61.9,34,61.6
		l7.3-25.7c0.1-0.5,0.2-0.9,0.3-2.1c0-0.2,0.1-0.3,0.2-0.3h5.4c0.2,0,0.3,0.1,0.3,0.3l8.2,27.9c0.1,0.2,0,0.3-0.2,0.3h-4.3
		c-0.2,0-0.3-0.1-0.4-0.2L48.8,54H40.5L40.5,54z"/>
</g>
</svg>
