<svg xmlns="http://www.w3.org/2000/svg" width="28" height="28" viewBox="0 0 28 28">
  <defs>
    <style>
      .cls-1 {
        fill: none;
      }

      .cls-2 {
        fill: #dd4c35;
      }

      .cls-3 {
        fill: #fff;
      }
    </style>
  </defs>
  <g id="グループ_39" data-name="グループ 39" transform="translate(-808 -519)">
    <path id="パス_15" data-name="パス 15" class="cls-1" d="M0,0H28V28H0Z" transform="translate(808 519)"/>
    <g id="icon_git" transform="translate(810.002 521.001)">
      <path id="パス_13" data-name="パス 13" class="cls-2" d="M21.62,11.239,12.889,2.382a1.273,1.273,0,0,0-1.821,0L9.254,4.222l2.3,2.333a1.514,1.514,0,0,1,1.577.375,1.567,1.567,0,0,1,.359,1.6L15.7,10.778a1.52,1.52,0,0,1,1.808.666,1.569,1.569,0,0,1-.261,1.933,1.514,1.514,0,0,1-1.917.148,1.565,1.565,0,0,1-.547-1.87l-2.068-2.1v5.519a1.559,1.559,0,0,1,.8,1.77,1.525,1.525,0,0,1-2.988-.107,1.555,1.555,0,0,1,.924-1.708V9.462a1.544,1.544,0,0,1-.834-.844,1.576,1.576,0,0,1,0-1.2l-2.264-2.3L2.377,11.2a1.317,1.317,0,0,0,0,1.848L11.107,21.9a1.273,1.273,0,0,0,1.821,0l8.691-8.819a1.317,1.317,0,0,0,0-1.848"/>
      <path id="パス_14" data-name="パス 14" class="cls-3" d="M11.814,5.067,14.147,7.4a1.551,1.551,0,0,1,1.965,1.978l2.246,2.246a1.553,1.553,0,1,1-.931.877l-2.1-2.1v5.519a1.551,1.551,0,1,1-1.278-.045V10.307a1.555,1.555,0,0,1-.844-2.039l-2.3-2.3" transform="translate(-2.628 -0.845)"/>
    </g>
  </g>
</svg>
