<?xml version="1.0" encoding="utf-8"?>
<!-- Generator: Adobe Illustrator 23.0.1, SVG Export Plug-In . SVG Version: 6.00 Build 0)  -->
<svg version="1.1" id="ps_x5F_cc_x5F_app_x5F_RGB.svg"
	 xmlns="http://www.w3.org/2000/svg" xmlns:xlink="http://www.w3.org/1999/xlink" x="0px" y="0px" viewBox="0 0 100 100"
	 style="enable-background:new 0 0 100 100;" xml:space="preserve">
<style type="text/css">
	.st0{fill:#2E001E;}
	.st1{fill:#FF2BC2;}
</style>
<g>
	<path class="st0" d="M21.6,22.4h56.8v55.3H21.6V22.4z"/>
	<path class="st1" d="M19,19.8v60.4h62V19.8H19z M21.6,22.4h56.8v55.3H21.6V22.4z"/>
	<path class="st1" d="M64,45.2c-0.4-0.2-0.9-0.3-1.5-0.3c-3.3,0-5.4,2.5-5.4,6.7c0,4.8,2.2,6.7,5.1,6.7c0.6,0,1.3-0.1,1.8-0.3
		L64,45.2L64,45.2z M52.5,51.8c0-6,3.9-10.7,10.2-10.7c0.5,0,0.8,0,1.3,0.1v-6.7c0-0.2,0.1-0.3,0.3-0.3h4.2c0.2,0,0.3,0.1,0.3,0.2
		V58c0,0.7,0,1.6,0.1,2.5c0,0.2,0,0.2-0.2,0.3c-2.2,1-4.4,1.5-6.6,1.5C56.5,62.3,52.5,58.8,52.5,51.8L52.5,51.8z M43.6,47.6l7.2,14
		c0.1,0.2,0.1,0.4-0.2,0.4h-4.5c-0.3,0-0.4-0.1-0.5-0.3c-1.7-3.4-3.3-6.9-5.1-10.6h-0.1c-1.5,3.5-3.3,7.2-4.9,10.6
		c-0.1,0.2-0.3,0.3-0.5,0.3h-4.3c-0.3,0-0.3-0.2-0.2-0.4L37.8,48L31,34.5c-0.2-0.2,0-0.4,0.2-0.4h4.4c0.3,0,0.4,0.1,0.5,0.3
		c1.6,3.4,3.3,6.8,4.8,10.3H41c1.5-3.4,3.2-6.8,4.7-10.2c0.1-0.2,0.2-0.3,0.5-0.3h4.2c0.2,0,0.3,0.2,0.2,0.4L43.6,47.6L43.6,47.6z"
		/>
</g>
</svg>
