<?xml version="1.0" encoding="utf-8"?>
<!-- Generator: Adobe Illustrator 23.0.1, SVG Export Plug-In . SVG Version: 6.00 Build 0)  -->
<svg version="1.1" id="レイヤー_1" xmlns="http://www.w3.org/2000/svg" xmlns:xlink="http://www.w3.org/1999/xlink" x="0px"
	 y="0px" viewBox="0 0 100 100" style="enable-background:new 0 0 100 100;" xml:space="preserve">
<style type="text/css">
	.st0{fill:#E44D26;}
	.st1{fill:#F16529;}
	.st2{fill:#EBEBEB;}
	.st3{fill:#FFFFFF;}
</style>
<title>HTML5 Logo</title>
<g>
	<polygon class="st0" points="32,76 28,31.2 72,31.2 68,76 50,81 	"/>
	<polygon class="st1" points="50,77.2 64.5,73.2 68,34.9 50,34.9 	"/>
	<polygon class="st2" points="50,51.5 42.7,51.5 42.2,45.8 50,45.8 50,40.3 50,40.3 36.2,40.3 36.3,41.8 37.7,57 50,57 	"/>
	<polygon class="st2" points="50,65.8 50,65.8 43.9,64.1 43.5,59.7 40.5,59.7 37.9,59.7 38.7,68.4 50,71.5 50,71.5 	"/>
	<path d="M32.1,19h2.8v2.8h2.6V19h2.8v8.4h-2.8v-2.8h-2.6v2.8h-2.8L32.1,19L32.1,19z"/>
	<path d="M43.9,21.8h-2.5V19h7.7v2.8h-2.5v5.6h-2.8L43.9,21.8L43.9,21.8z"/>
	<path d="M50.4,19h2.9l1.8,2.9l1.8-2.9h2.9v8.4h-2.8v-4.1l-1.9,3h0l-1.9-3v4.1h-2.7V19z"/>
	<path d="M61.2,19H64v5.6H68v2.8h-6.7V19z"/>
	<polygon class="st3" points="50,51.5 50,57 56.8,57 56.1,64.1 50,65.8 50,71.5 61.3,68.4 61.3,67.4 62.6,53 62.8,51.5 61.3,51.5 	
		"/>
	<polygon class="st3" points="50,40.3 50,43.8 50,45.8 50,45.8 63.2,45.8 63.2,45.8 63.3,45.8 63.4,44.6 63.6,41.8 63.8,40.3 	"/>
</g>
</svg>
