<?xml version="1.0" encoding="utf-8"?>
<!-- Generator: Adobe Illustrator 23.0.1, SVG Export Plug-In . SVG Version: 6.00 Build 0)  -->
<svg version="1.1" id="レイヤー_1" xmlns="http://www.w3.org/2000/svg" xmlns:xlink="http://www.w3.org/1999/xlink" x="0px"
	 y="0px" viewBox="0 0 100 100" style="enable-background:new 0 0 100 100;" xml:space="preserve">
<style type="text/css">
	.st0{fill:url(#SVGID_1_);}
	.st1{fill:#31C5F0;}
</style>
<g>
	
		<radialGradient id="SVGID_1_" cx="365.7128" cy="4890.0903" r="1.884797e-02" gradientTransform="matrix(2291.6716 0 0 -2218.7549 -838053.25 10849947)" gradientUnits="userSpaceOnUse">
		<stop  offset="0" style="stop-color:#34364E;stop-opacity:0.98"/>
		<stop  offset="1" style="stop-color:#0C0824"/>
	</radialGradient>
	<path class="st0" d="M21.6,22.4h56.8v55.3H21.6V22.4z"/>
	<path class="st1" d="M21.6,22.4h56.8v55.3H21.6V22.4z M19,80.2h62V19.8H19V80.2z M60.8,44.6c-2,0-2.7,1-2.7,1.9
		c0,0.9,0.5,1.6,3.2,3c4.1,2,5.3,3.8,5.3,6.6c0,4.1-3.2,6.4-7.4,6.4c-2.2,0-4.2-0.5-5.3-1.1c-0.2-0.1-0.2-0.2-0.2-0.4v-3.8
		c0-0.3,0.1-0.3,0.3-0.2c1.6,1.1,3.5,1.5,5.2,1.5c2,0,2.9-0.9,2.9-2c0-0.9-0.6-1.8-3.2-3.1c-3.7-1.8-5.2-3.5-5.2-6.5
		c0-3.3,2.6-6.1,7.1-6.1c2.2,0,3.8,0.3,4.6,0.7c0.2,0.1,0.3,0.3,0.3,0.5v3.5c0,0.2-0.1,0.3-0.4,0.3C64.2,45,62.5,44.6,60.8,44.6
		L60.8,44.6z M38.6,47.6c0.6,0.1,1.1,0.1,2.1,0.1c3,0,5.9-1.1,5.9-5.2c0-3.3-2-4.9-5.5-4.9c-1,0-2,0.1-2.5,0.1V47.6z M34,33.9
		c0-0.2,0.4-0.3,0.6-0.3c1.7-0.1,4.1-0.1,6.7-0.1c7.2,0,9.9,3.9,9.9,8.9c0,6.6-4.8,9.4-10.6,9.4c-1,0-1.3-0.1-2-0.1v9.9
		c0,0.2-0.1,0.3-0.3,0.3h-4c-0.2,0-0.3-0.1-0.3-0.3L34,33.9L34,33.9z"/>
</g>
</svg>
